<svg xmlns="http://www.w3.org/2000/svg" viewBox="0 0 620.88 90.4"><defs><style>.cls-1{fill:#fff;}</style></defs><title>Asset 14</title><g id="Layer_2" data-name="Layer 2"><g id="Layer_1-2" data-name="Layer 1"><path class="cls-1" d="M138.93,57.6V30.38a10.1,10.1,0,0,1,.3-2.46,7.55,7.55,0,0,1,1.08-2.38c.26-.37.65-.86,1.16-1.45s1.08-1.19,1.69-1.81,1.22-1.21,1.84-1.75a9.1,9.1,0,0,1,1.62-1.21,12.22,12.22,0,0,1,2.48-1.08,9.09,9.09,0,0,1,2.87-.48h10.81a8.34,8.34,0,0,1,3.43.72,14.82,14.82,0,0,1,3,1.77,16.94,16.94,0,0,1,2.52,2.33c.75.85,1.42,1.63,2,2.35.35.52.64,1,.87,1.39l.95,1.64-8.82,2.51c-.49-.61-1-1.17-1.47-1.69s-.83-.91-1.27-1.34a7.74,7.74,0,0,0-1.15-1,.22.22,0,0,0-.17-.09H152.32a.33.33,0,0,0-.15,0l-.11,0-.09,0a5.64,5.64,0,0,0-1,.65c-.36.29-.72.6-1.08.95s-.7.71-1,1.1a8,8,0,0,0-.79,1.1.92.92,0,0,0-.09.48V57.51a1.78,1.78,0,0,0,.43,1,8.58,8.58,0,0,0,1.06,1.16,13.52,13.52,0,0,0,1.32,1.08,10.55,10.55,0,0,0,1.16.76.43.43,0,0,0,.31.09H162.6a.61.61,0,0,0,.26-.09,6.19,6.19,0,0,0,1.39-1,15.53,15.53,0,0,0,1.25-1.34,17.12,17.12,0,0,0,1.25-1.73l8.82,2.33c-.35.78-.65,1.4-.91,1.86a16,16,0,0,1-.91,1.43c-.57.74-1.24,1.54-2,2.39a17.56,17.56,0,0,1-2.52,2.34,14.74,14.74,0,0,1-3,1.75,8.65,8.65,0,0,1-3.43.69H152a9.35,9.35,0,0,1-2.87-.46A11.56,11.56,0,0,1,145,67.5c-.62-.52-1.24-1.08-1.84-1.69S142,64.61,141.47,64a14.56,14.56,0,0,1-1.16-1.49,7.54,7.54,0,0,1-1.08-2.42A10.76,10.76,0,0,1,138.93,57.6Z"/><path class="cls-1" d="M195.44,57.51v-27a10.76,10.76,0,0,1,.3-2.51,7.9,7.9,0,0,1,1.08-2.42A17.71,17.71,0,0,1,198,24.09c.52-.59,1.08-1.19,1.69-1.81s1.21-1.21,1.83-1.75a9.88,9.88,0,0,1,1.62-1.21,10.65,10.65,0,0,1,2.49-1.1,9.3,9.3,0,0,1,2.87-.46h13.14a9.42,9.42,0,0,1,2.85.46,10.55,10.55,0,0,1,2.5,1.1,9.06,9.06,0,0,1,1.6,1.21c.61.54,1.21,1.13,1.82,1.75s1.16,1.22,1.68,1.81.93,1.08,1.21,1.45A7.45,7.45,0,0,1,234.37,28a10.78,10.78,0,0,1,.31,2.51v27a10.71,10.71,0,0,1-.31,2.51,7.45,7.45,0,0,1-1.08,2.42c-.28.38-.69.86-1.21,1.45S231,65.08,230.4,65.7s-1.21,1.21-1.82,1.75a9.06,9.06,0,0,1-1.6,1.21,10.55,10.55,0,0,1-2.5,1.1,9.42,9.42,0,0,1-2.85.46H208.49a9.3,9.3,0,0,1-2.87-.46,10.65,10.65,0,0,1-2.49-1.1,9.88,9.88,0,0,1-1.62-1.21c-.62-.54-1.23-1.13-1.83-1.75s-1.17-1.22-1.69-1.81a16.15,16.15,0,0,1-1.17-1.45A7.9,7.9,0,0,1,195.74,60,10.7,10.7,0,0,1,195.44,57.51Zm9.08.05a.26.26,0,0,0,.08.21,7.68,7.68,0,0,0,.91,1.17l1,1.08a10.24,10.24,0,0,0,1,.91,5.5,5.5,0,0,0,.84.56.71.71,0,0,0,.26.09h12.75a.64.64,0,0,0,.3-.09,6,6,0,0,0,.85-.56,10.24,10.24,0,0,0,1-.91l1-1.08a8.37,8.37,0,0,0,.91-1.17.84.84,0,0,0,.08-.21v-27a.4.4,0,0,0-.08-.26c-.26-.37-.57-.76-.91-1.16s-.69-.78-1-1.13a10.07,10.07,0,0,0-1-.9c-.34-.26-.62-.47-.85-.61a.61.61,0,0,0-.26-.09H208.66a.36.36,0,0,0-.26.09,9.27,9.27,0,0,0-.84.61,10.07,10.07,0,0,0-1,.9c-.35.35-.69.72-1,1.13a13.84,13.84,0,0,0-.91,1.16.68.68,0,0,0-.08.31v27Z"/><path class="cls-1" d="M254.9,69.79V18.11h10.37l12.1,25.49,11.92-25.49h10.28V69.79H290.5V34.44L280.22,57.08h-6L264,34.53V69.79Z"/><path class="cls-1" d="M320.66,69.79V18.11H331l12.1,25.49,11.93-25.49h10.28V69.79h-9.07V34.44L346,57.08h-6L329.73,34.53V69.79Z"/><path class="cls-1" d="M385.65,57.51V18.11h9.07v39.4a.33.33,0,0,0,.09.26,13.51,13.51,0,0,0,1.9,2.25,8.49,8.49,0,0,0,1.9,1.47.66.66,0,0,0,.26.09H409.5a.66.66,0,0,0,.26-.09,5,5,0,0,0,.82-.56,11.42,11.42,0,0,0,1-.91c.35-.35.69-.7,1-1.08a9,9,0,0,0,.88-1.17.67.67,0,0,0,.09-.21V18.11h9.07v39.4a10.7,10.7,0,0,1-.3,2.51,7.45,7.45,0,0,1-1.08,2.42,16.15,16.15,0,0,1-1.17,1.45c-.51.59-1.08,1.19-1.68,1.81s-1.22,1.21-1.84,1.75a9.88,9.88,0,0,1-1.62,1.21,10.78,10.78,0,0,1-2.46,1.1,9,9,0,0,1-2.81.46h-11a9.41,9.41,0,0,1-2.88-.46,10.76,10.76,0,0,1-2.48-1.1,9.88,9.88,0,0,1-1.62-1.21c-.62-.54-1.23-1.13-1.84-1.75s-1.16-1.22-1.68-1.81A16.15,16.15,0,0,1,387,62.44,7.45,7.45,0,0,1,386,60,10.7,10.7,0,0,1,385.65,57.51Z"/><path class="cls-1" d="M443,69.79V18.11h9.76l17.72,34.74V18.11h9.07V69.79H470L452.1,35.48V69.79Z"/><path class="cls-1" d="M500.67,69.79V18.11h9.07V69.79Z"/><path class="cls-1" d="M528.06,26.75V18.11h37.08v8.64h-14v43h-9.08v-43Z"/><path class="cls-1" d="M577.75,18.11h10l11.49,19.61,11.5-19.61h10.11L603.77,47.23V69.79h-9.08V47.23Z"/><path class="cls-1" d="M106,86.9h0c0-1,0-1.5-.5-2v-.5L56,1.88a3.76,3.76,0,0,0-6.51,0l-49,83v.5c0,.5-.5,1-.5,1.5v.5a1.84,1.84,0,0,0,.5,1.5c.5.5.5,1,1,1a1.84,1.84,0,0,0,1.5.5h98.53a1.84,1.84,0,0,0,1.5-.5l1.5-1.5C106,87.9,106,87.4,106,86.9ZM53,44.39l14,22.5H39Zm-4-8.51L29.51,67.39,14,76.4l35-59Zm-15.5,38h39l15.5,9H18ZM76,67.39,56.52,35.88V17.38l35,59Z"/></g></g></svg>