<svg xmlns="http://www.w3.org/2000/svg" viewBox="0 0 620.88 90.4"><defs><style>.cls-1{fill:#fff;}</style></defs><title>Asset 15</title><g id="Layer_2" data-name="Layer 2"><g id="Layer_1-2" data-name="Layer 1"><path class="cls-1" d="M138.93,57.4V32a8.89,8.89,0,0,1,.3-2.29,6.71,6.71,0,0,1,1.08-2.22,17.51,17.51,0,0,1,1.16-1.35c.52-.55,1.08-1.12,1.69-1.7s1.22-1.12,1.84-1.63a9.13,9.13,0,0,1,1.62-1.13,13.57,13.57,0,0,1,2.48-1,10,10,0,0,1,2.87-.44h10.81a9,9,0,0,1,3.43.66,15.87,15.87,0,0,1,3,1.66,16.59,16.59,0,0,1,2.52,2.18c.75.79,1.42,1.52,2,2.19q.52.73.87,1.29l.95,1.54-8.82,2.33c-.49-.56-1-1.08-1.47-1.57s-.83-.84-1.27-1.25a8,8,0,0,0-1.15-.89.25.25,0,0,0-.17-.08H152.32l-.15,0a.23.23,0,0,1-.11,0l-.09,0a6.45,6.45,0,0,0-1,.61c-.36.27-.72.56-1.08.89a14.41,14.41,0,0,0-1,1,7.07,7.07,0,0,0-.79,1,.8.8,0,0,0-.09.45v25a1.62,1.62,0,0,0,.43.91,8.23,8.23,0,0,0,1.06,1.08,12.81,12.81,0,0,0,1.32,1A12.27,12.27,0,0,0,152,61a.48.48,0,0,0,.31.08H162.6a.73.73,0,0,0,.26-.08,6.48,6.48,0,0,0,1.39-.93,13.4,13.4,0,0,0,1.25-1.25,15.2,15.2,0,0,0,1.25-1.61l8.82,2.18c-.35.72-.65,1.3-.91,1.73a15.09,15.09,0,0,1-.91,1.33c-.57.7-1.24,1.45-2,2.24a17.17,17.17,0,0,1-2.52,2.18,15.22,15.22,0,0,1-3,1.63,9.17,9.17,0,0,1-3.43.64H152a10.28,10.28,0,0,1-2.87-.42,10.76,10.76,0,0,1-2.48-1A9.76,9.76,0,0,1,145,66.63a24,24,0,0,1-1.84-1.57c-.61-.56-1.17-1.12-1.69-1.67A14.06,14.06,0,0,1,140.31,62a6.79,6.79,0,0,1-1.08-2.26A9.39,9.39,0,0,1,138.93,57.4Z"/><path class="cls-1" d="M195.44,57.32V32.07a9.37,9.37,0,0,1,.3-2.33,7.1,7.1,0,0,1,1.08-2.26A16,16,0,0,1,198,26.13c.52-.55,1.08-1.12,1.69-1.7s1.21-1.12,1.83-1.63a9.92,9.92,0,0,1,1.62-1.13,11.6,11.6,0,0,1,2.49-1,10.23,10.23,0,0,1,2.87-.42h13.14a10.36,10.36,0,0,1,2.85.42,11.48,11.48,0,0,1,2.5,1,9.08,9.08,0,0,1,1.6,1.13c.61.51,1.21,1.06,1.82,1.63s1.16,1.15,1.68,1.7.93,1,1.21,1.35a6.7,6.7,0,0,1,1.08,2.26,9.39,9.39,0,0,1,.31,2.33V57.32a9.4,9.4,0,0,1-.31,2.34,6.79,6.79,0,0,1-1.08,2.26c-.28.34-.69.8-1.21,1.35S231,64.38,230.4,65s-1.21,1.12-1.82,1.63a9.08,9.08,0,0,1-1.6,1.13,10.57,10.57,0,0,1-2.5,1,10.36,10.36,0,0,1-2.85.42H208.49a10.23,10.23,0,0,1-2.87-.42,10.66,10.66,0,0,1-2.49-1,9.92,9.92,0,0,1-1.62-1.13c-.62-.51-1.23-1-1.83-1.63s-1.17-1.14-1.69-1.69a17.71,17.71,0,0,1-1.17-1.35,7.21,7.21,0,0,1-1.08-2.26A9.39,9.39,0,0,1,195.44,57.32Zm9.08,0a.24.24,0,0,0,.08.2,7.62,7.62,0,0,0,.91,1.09l1,1a10.44,10.44,0,0,0,1,.84,5,5,0,0,0,.84.53.87.87,0,0,0,.26.08h12.75a.75.75,0,0,0,.3-.08,5.44,5.44,0,0,0,.85-.53,10.44,10.44,0,0,0,1-.84l1-1a8.35,8.35,0,0,0,.91-1.09.83.83,0,0,0,.08-.2V32.16a.37.37,0,0,0-.08-.25c-.26-.35-.57-.71-.91-1.09s-.69-.72-1-1a9.3,9.3,0,0,0-1-.85c-.34-.24-.62-.43-.85-.57a.73.73,0,0,0-.26-.08H208.66a.4.4,0,0,0-.26.08q-.35.21-.84.57a9.3,9.3,0,0,0-1,.85c-.35.32-.69.67-1,1a13.46,13.46,0,0,0-.91,1.09.61.61,0,0,0-.08.29V57.36Z"/><path class="cls-1" d="M254.9,68.77V20.54h10.37l12.1,23.79,11.92-23.79h10.28V68.77H290.5v-33L280.22,56.92h-6L264,35.87v32.9Z"/><path class="cls-1" d="M320.66,68.77V20.54H331l12.1,23.79,11.93-23.79h10.28V68.77h-9.07v-33L346,56.92h-6L329.73,35.87v32.9Z"/><path class="cls-1" d="M385.65,57.32V20.54h9.07V57.32a.3.3,0,0,0,.09.24,12.71,12.71,0,0,0,1.9,2.1,8.41,8.41,0,0,0,1.9,1.37.79.79,0,0,0,.26.08H409.5a.79.79,0,0,0,.26-.08,4.57,4.57,0,0,0,.82-.53,11.68,11.68,0,0,0,1-.84c.35-.33.69-.66,1-1a8.94,8.94,0,0,0,.88-1.09.66.66,0,0,0,.09-.2V20.54h9.07V57.32a9.39,9.39,0,0,1-.3,2.34,6.79,6.79,0,0,1-1.08,2.26,17.71,17.71,0,0,1-1.17,1.35c-.51.55-1.08,1.11-1.68,1.69s-1.22,1.12-1.84,1.63a9.92,9.92,0,0,1-1.62,1.13,10.77,10.77,0,0,1-2.46,1,9.92,9.92,0,0,1-2.81.42h-11a10.35,10.35,0,0,1-2.88-.42,10.76,10.76,0,0,1-2.48-1,9.92,9.92,0,0,1-1.62-1.13c-.62-.51-1.23-1-1.84-1.63s-1.16-1.14-1.68-1.69A17.71,17.71,0,0,1,387,61.92,6.79,6.79,0,0,1,386,59.66,9.39,9.39,0,0,1,385.65,57.32Z"/><path class="cls-1" d="M443,68.77V20.54h9.76L470.51,53V20.54h9.07V68.77H470l-17.89-32v32Z"/><path class="cls-1" d="M500.67,68.77V20.54h9.07V68.77Z"/><path class="cls-1" d="M528.06,28.61V20.54h37.08v8.07h-14V68.77h-9.08V28.61Z"/><path class="cls-1" d="M577.75,20.54h10l11.49,18.31,11.5-18.31h10.11L603.77,47.72v21h-9.08v-21Z"/><path class="cls-1" d="M106,86.9h0c0-1,0-1.5-.5-2v-.5L56,1.88a3.76,3.76,0,0,0-6.51,0l-49,83v.5c0,.5-.5,1-.5,1.5v.5a1.84,1.84,0,0,0,.5,1.5c.5.5.5,1,1,1a1.84,1.84,0,0,0,1.5.5h98.53a1.84,1.84,0,0,0,1.5-.5l1.5-1.5C106,87.9,106,87.4,106,86.9ZM53,44.39l14,22.5H39Zm-4-8.51L29.51,67.39,14,76.4l35-59Zm-15.5,38h39l15.5,9H18ZM76,67.39,56.52,35.88V17.38l35,59Z"/></g></g></svg>