<svg xmlns="http://www.w3.org/2000/svg" viewBox="0 0 121.67 142.69"><defs><style>.cls-1{fill:#fff;}</style></defs><title>Asset 1</title><g id="Layer_2" data-name="Layer 2"><g id="Layer_1-2" data-name="Layer 1"><path class="cls-1" d="M117.27,34.21l3.06-6.86a2.36,2.36,0,0,0-.48-2.61l-8.32-8.41a13.44,13.44,0,0,0-14-3.25l-2.33.81L82.49.12,60.93,0h-.14L39.09.17,26.39,14.05l-2.26-.8A13.45,13.45,0,0,0,10,16.53L1.57,25.1a1.87,1.87,0,0,0-.38,2.08L4.38,34.3,0,46.24,2.83,57l12.91,49.08a25,25,0,0,0,9.67,14s15.67,11,31.13,21.09a6.9,6.9,0,0,0,8.61,0c17.37-11.38,31.11-21.13,31.11-21.13a25,25,0,0,0,9.66-14L118.76,57l2.91-10.79ZM79.86,98.11l-6.15,4.4c-1.08.79-2.77,2.13-3.77,3L68.2,107l-3.62,3.16-1.72,1.5a2.82,2.82,0,0,1-3.61,0l-1.64-1.45c-1-.88-2.62-2.31-3.62-3.17l-1.73-1.49c-1-.9-2.7-2.24-3.78-3l-6.15-4.34a1.38,1.38,0,0,1-.7-.8,1.35,1.35,0,0,1,.87-1.7l7.08-3.69c1.17-.58,3.13-1.49,4.35-2l3.85-1.6a17.5,17.5,0,0,1,2.54-.92h1.53a17.5,17.5,0,0,1,2.54.92L68.23,90c1.23.5,3.19,1.4,4.37,2l7.07,3.59a1.34,1.34,0,0,1,.19,2.49ZM108,48.83a9.78,9.78,0,0,1-.43,1.18c-.83,1-2.24,2.63-3.15,3.63l-14,14.9a4,4,0,0,0-.71,4L92,78a7.05,7.05,0,0,1,.11,4.47l-.46,1.26a12.16,12.16,0,0,1-3.73,5.24l-2.2,1.8a4.15,4.15,0,0,1-4,.49L73.9,87.51a20.08,20.08,0,0,1-4-2.64l-6.27-5.65-.05,0a2.5,2.5,0,0,1-.08-3.55l14.12-9.54a2.74,2.74,0,0,0,.86-3.47L73,52.31a5.33,5.33,0,0,1-.27-4.09,6.24,6.24,0,0,1,3.11-2.82L93,38.89c1.23-.47,1.17-1-.15-1.08l-10.09-.94a15.57,15.57,0,0,0-4.71.42l-8.78,2.46a2.69,2.69,0,0,0-1.88,3l3.47,18.84A9.71,9.71,0,0,1,71,64.77c-.15.45-1.32,1.06-2.61,1.35l-4.81,1.09a12.8,12.8,0,0,1-4.7,0l-5.35-1.14c-1.29-.32-2.47-.87-2.61-1.32a9.71,9.71,0,0,1,.17-3.18l3.45-18.84a2.69,2.69,0,0,0-1.88-3l-8.78-2.45a15.57,15.57,0,0,0-4.71-.42l-10.09,1c-1.31.08-1.38.61-.14,1.08l17.18,6.49a6.24,6.24,0,0,1,3.11,2.82A5.33,5.33,0,0,1,49,52.34l-5.48,10.3a2.74,2.74,0,0,0,.86,3.47l14.13,9.52s0,0,.05.05a2.51,2.51,0,0,1-.18,3.55l-6.26,5.65a19.84,19.84,0,0,1-4,2.65L40.3,91.26a4.15,4.15,0,0,1-4-.48L34.1,89a12.13,12.13,0,0,1-3.73-5.23l-.46-1.26A7.05,7.05,0,0,1,30,78l2.29-5.43a4,4,0,0,0-.71-4l-14-14.88c-.91-1-2.33-2.63-3.16-3.63a10,10,0,0,1-.37-1.21l-.2-.64a14.6,14.6,0,0,1,.54-3.72,31.25,31.25,0,0,1,1.89-3.15l4-5.87c.74-1.09,2-2.87,2.85-3.87l5.35-6.71a18.8,18.8,0,0,1,1.59-1.86h.11s1.08.19,2.38.44l8.2,1.57,3.59.68a9.32,9.32,0,0,0,3.51-.51l6.47-2.1c1.26-.41,3.34-1,4.63-1.29a20,20,0,0,1,4.09,0c1.29.28,3.37.87,4.63,1.28l6.47,2.09a9.32,9.32,0,0,0,3.51.51L81.27,25l8.19-1.58L91.84,23H92a18.8,18.8,0,0,1,1.59,1.86l5.36,6.71c.85,1,2.11,2.77,2.85,3.87l4,5.87a21.86,21.86,0,0,1,2.28,4.3,16.85,16.85,0,0,1,.16,2.56Z"/></g></g></svg>